<?xml version="1.0"?>
<svg xmlns="http://www.w3.org/2000/svg" xmlns:xlink="http://www.w3.org/1999/xlink" xmlns:svgjs="http://svgjs.com/svgjs" version="1.1" width="512" height="512" x="0" y="0" viewBox="0 0 128 128" style="enable-background:new 0 0 512 512" xml:space="preserve" class=""><g><linearGradient xmlns="http://www.w3.org/2000/svg" id="a" gradientUnits="userSpaceOnUse" x1="91.664" x2="39.905" y1="96.595" y2="44.836"><stop stop-opacity="1" stop-color="#fb8e9c" offset="0.003861003861003861"/><stop stop-opacity="1" stop-color="#f3b0b9" offset="1"/></linearGradient><path xmlns="http://www.w3.org/2000/svg" d="m65.8 33.277v1.077a4.478 4.478 0 0 1 1.918 1.55 1.75 1.75 0 1 1 -2.871 2 .971.971 0 1 0 -.8 1.525 1.748 1.748 0 0 1 .405.051 4.447 4.447 0 0 1 1.348 8.474v1.129a1.75 1.75 0 0 1 -3.5 0v-1.029a4.474 4.474 0 0 1 -2.026-1.6 1.75 1.75 0 0 1 2.871-2 .961.961 0 0 0 .8.417.97.97 0 1 0 0-1.94 1.748 1.748 0 0 1 -.405-.052 4.455 4.455 0 0 1 -1.24-8.531v-1.071a1.75 1.75 0 0 1 3.5 0zm35.782 29.815-4.538-.321a24.162 24.162 0 0 0 -5.131-7.926v-10.6a1.75 1.75 0 0 0 -1.75-1.75 13.026 13.026 0 0 0 -10.854 5.815 1.75 1.75 0 0 0 2.913 1.941 9.535 9.535 0 0 1 6.191-4.095v9.1a1.749 1.749 0 0 0 .5 1.519 20.618 20.618 0 0 1 5.211 8.2 1.751 1.751 0 0 0 1.539 1.2l3.931.278-.377 5.328-2.6-.184a1.75 1.75 0 0 0 -.247 3.503l4.345.307h.123a1.75 1.75 0 0 0 1.746-1.627l.624-8.819a1.75 1.75 0 0 0 -1.622-1.869zm-6.123 14.308a1.75 1.75 0 0 0 -2.344.792 23.81 23.81 0 0 1 -8.229 9.028 1.747 1.747 0 0 0 -.777 1.454v9.5h-5.931v-5.132a1.75 1.75 0 0 0 -3.5 0v6.884a1.749 1.749 0 0 0 1.75 1.75h9.431a1.75 1.75 0 0 0 1.75-1.75v-10.335a26.983 26.983 0 0 0 8.642-9.847 1.75 1.75 0 0 0 -.792-2.344zm-26.773 15.347c-1.208.112-2.448.169-3.684.169a38.49 38.49 0 0 1 -10.93-1.558 1.752 1.752 0 0 0 -2.246 1.679v5.139h-5.926v-9.5a1.75 1.75 0 0 0 -.777-1.455c-6.423-4.294-10.11-10.438-10.11-16.858a17.41 17.41 0 0 1 1.4-6.8 1.749 1.749 0 1 0 -3.227-1.363 20.872 20.872 0 0 0 -1.673 8.166c0 .542.029 1.081.071 1.618a1.758 1.758 0 0 0 -.071.467 1.613 1.613 0 1 1 -3.225 0 1.75 1.75 0 0 0 -3.5 0 5.118 5.118 0 0 0 5.112 5.11 5.065 5.065 0 0 0 2.654-.764 25.746 25.746 0 0 0 9.841 12.8v10.329a1.75 1.75 0 0 0 1.75 1.75h9.431a1.75 1.75 0 0 0 1.75-1.75v-4.616a42.364 42.364 0 0 0 9.674 1.106c1.344 0 2.692-.062 4.008-.185a1.75 1.75 0 1 0 -.324-3.484zm-29.965-34.264a1.748 1.748 0 0 0 1.311-.589q.345-.391.713-.771a1.75 1.75 0 1 0 -2.513-2.435q-.423.435-.821.885a1.75 1.75 0 0 0 1.31 2.91zm5.423-4.683a1.743 1.743 0 0 0 .97-.295 32.171 32.171 0 0 1 6.986-3.475 15.018 15.018 0 0 0 2.346 2.506h-1.321a1.75 1.75 0 0 0 0 3.5h21.75a1.75 1.75 0 0 0 0-3.5h-1.316a14.851 14.851 0 0 0 -16.793-24.336 1.75 1.75 0 1 0 1.707 3.055 11.347 11.347 0 1 1 -4.24 4.124 1.749 1.749 0 1 0 -3.007-1.789 14.864 14.864 0 0 0 -.915 13.36 35.519 35.519 0 0 0 -7.141 3.64 1.75 1.75 0 0 0 .974 3.2zm39.856 8.33a.344.344 0 1 1 .688 0 1.75 1.75 0 1 0 3.5 0 3.844 3.844 0 0 0 -7.688 0 1.75 1.75 0 0 0 3.5 0z" fill="url(#a)" data-original="url(#a)" style=""/></g></svg>
