<?xml version="1.0"?>
<svg xmlns="http://www.w3.org/2000/svg" xmlns:xlink="http://www.w3.org/1999/xlink" xmlns:svgjs="http://svgjs.com/svgjs" version="1.1" width="512" height="512" x="0" y="0" viewBox="0 0 511.342 511.342" style="enable-background:new 0 0 512 512" xml:space="preserve" class=""><g><g xmlns="http://www.w3.org/2000/svg"><path d="m447.203 157.316c27.212-60.747 17.447-123.957-23.964-147.866-19.146-11.054-43.102-12.459-67.454-3.958-20.154 7.036-39.551 21.183-56.538 39.25-28.702-5.875-58.489-5.864-87.13.029-16.986-18.075-36.385-32.229-56.543-39.271-24.36-8.511-48.324-7.108-67.477 3.95-41.465 23.94-51.198 87.217-23.894 148.022-38.751 75.591-29.784 169.326 27.353 236.771 24.279 28.658 37.112 64.618 37.112 102.1 0 8.284 6.716 15 15 15h72c7.565 0 13.946-5.633 14.884-13.14l4.031-33.247c1.326-10.611 10.391-18.613 21.085-18.613s19.759 8.002 21.085 18.613l4.031 33.247c.938 7.506 7.319 13.14 14.884 13.14h72c8.284 0 15-6.716 15-15 0-37.263 12.9-73.839 36.325-101.176 57.649-67.279 67.178-161.658 28.21-237.851zm-50.99 218.33c-24.901 29.06-39.881 66.78-42.954 105.696h-44.349l-2.388-20.107c-3.199-25.593-25.062-44.893-50.854-44.893s-47.654 19.299-50.854 44.893l-2.388 20.107h-44.34c-3.042-38.985-17.974-76.195-43.641-106.492-49.571-58.514-57.753-142.762-20.36-209.641 2.42-4.327 2.545-9.571.334-14.008-34.486-69.234-9.544-138.62 51.261-117.379 17.348 6.061 35.004 19.935 49.717 37.25 3.698 4.353 9.545 6.225 15.083 4.836 29.536-7.413 60.805-7.424 90.429-.034 5.532 1.382 11.367-.494 15.06-4.838 14.711-17.303 32.363-31.167 49.704-37.221 11.307-3.947 27.87-6.87 42.566 1.614 28.632 16.531 32.476 67.881 8.75 115.627-2.202 4.43-2.077 9.662.333 13.982 37.584 67.376 29.101 152.012-21.109 210.608z" fill="#ef8b98" data-original="#000000" style=""/><path d="m326.716 253.957c-39.634-28.825-102.438-28.842-142.096 0-42.398 30.834-42.893 83.577 0 114.771 39.634 28.825 102.438 28.842 142.096 0 42.398-30.834 42.893-83.577 0-114.771zm-71.048 106.385c-39.57 0-73-22.439-73-49s33.43-49 73-49 73 22.439 73 49-33.429 49-73 49z" fill="#ef8b98" data-original="#000000" style=""/><path d="m231.668 288.342c-8.284 0-15 6.716-15 15v16c0 8.284 6.716 15 15 15s15-6.716 15-15v-16c0-8.284-6.716-15-15-15z" fill="#ef8b98" data-original="#000000" style=""/><path d="m279.668 288.342c-8.284 0-15 6.716-15 15v16c0 8.284 6.716 15 15 15s15-6.716 15-15v-16c0-8.284-6.716-15-15-15z" fill="#ef8b98" data-original="#000000" style=""/><g><path d="m223.74 190.488c-5.495 0-10.752-3.036-13.375-8.195-.853-1.345-5.709-7.951-18.697-7.951-13.379 0-18.129 7.009-18.764 8.057-3.81 7.154-12.658 10.015-19.95 6.37-7.41-3.705-10.418-12.705-6.713-20.114 4.521-9.043 19.164-24.312 45.427-24.312s40.905 15.27 45.417 24.292c.094.188.185.379.271.572l.063.142c3.389 7.56.008 16.435-7.552 19.823-1.992.892-4.076 1.316-6.127 1.316zm-50.655-8.438c-.055.11-.111.219-.168.327.117-.208.168-.327.168-.327z" fill="#ef8b98" data-original="#000000" style=""/></g><g><path d="m287.596 190.488c-2.051 0-4.134-.423-6.127-1.316-7.56-3.389-10.94-12.264-7.552-19.823l.063-.142c.086-.193.177-.384.271-.572 4.511-9.022 19.153-24.292 45.417-24.292s40.905 15.27 45.417 24.292c3.705 7.41.707 16.43-6.703 20.135-7.302 3.65-16.154.797-19.955-6.378-.654-1.076-5.414-8.049-18.759-8.049-12.989 0-17.845 6.606-18.697 7.951-2.623 5.157-7.88 8.194-13.375 8.194zm50.665-8.419c-.001 0 .046.108.151.293-.051-.096-.101-.194-.15-.292-.001 0-.001-.001-.001-.001zm-37.176-.019s0 0 0 0z" fill="#ef8b98" data-original="#000000" style=""/></g></g></g></svg>
