<svg id="button1" xmlns="http://www.w3.org/2000/svg" width="72.756" height="73.754" viewBox="0 0 72.756 73.754">
  <path id="Path_40" data-name="Path 40" d="M393.139,233.3a1.08,1.08,0,0,0,1.08-1.08V229.8a1.08,1.08,0,1,0-2.161,0v2.426A1.08,1.08,0,0,0,393.139,233.3Zm0,0" transform="translate(-335.583 -195.769)" fill="#f0a0aa"/>
  <path id="Path_41" data-name="Path 41" d="M146.536,98.659h-2.965a22.369,22.369,0,0,0-11.117-14.175v-7.84a2.274,2.274,0,0,0-2.567-2.255,11.194,11.194,0,0,0-9.141,7.459h-1.14q.026-.367.026-.739a9.908,9.908,0,1,0-19.561,2.226A22.678,22.678,0,0,0,90.11,90.8a1.081,1.081,0,0,0,1.718,1.311,20.523,20.523,0,0,1,8.958-6.735,10.011,10.011,0,0,0,1.926,2.732c-.113.029-.226.059-.338.09a1.08,1.08,0,1,0,.576,2.083,15.607,15.607,0,0,1,2.442-.47c1.233-.136.517-.095,13.046-.1a1.08,1.08,0,0,0,0-2.161h-1.178a9.792,9.792,0,0,0,1.945-3.544h2.339a1.08,1.08,0,0,0,1.044-.8,9.044,9.044,0,0,1,7.579-6.673.1.1,0,0,1,.085.026.11.11,0,0,1,.039.087v8.5a1.079,1.079,0,0,0,.6.967,20.335,20.335,0,0,1,10.765,13.856,1.08,1.08,0,0,0,1.057.855h3.821a1,1,0,0,1,1,1v8a1,1,0,0,1-1,1h-4.141a2.068,2.068,0,0,0-1.9,1.258,20.39,20.39,0,0,1-1.1,2.21,1.08,1.08,0,1,0,1.869,1.083,22.3,22.3,0,0,0,1.2-2.39h4.079a3.163,3.163,0,0,0,3.161-3.159v-8A3.164,3.164,0,0,0,146.536,98.659ZM105.528,87.624a7.741,7.741,0,1,1,11.795-4.989,1.126,1.126,0,0,0-.03.145,7.69,7.69,0,0,1-3.265,4.772C107.327,87.575,106.9,87.5,105.528,87.624Zm0,0" transform="translate(-76.94 -60.943)" fill="#f0a0aa"/>
  <path id="Path_42" data-name="Path 42" d="M61.4,254.8a1.08,1.08,0,0,0-1.526.069,20.383,20.383,0,0,1-3.255,2.873,1.079,1.079,0,0,0-.456.847,75.007,75.007,0,0,1-.711,7.86,3.69,3.69,0,0,1-3.643,3.17h-.02a3.752,3.752,0,0,1-3.625-3.189c-.193-1.392-.349-2.741-.464-4.011-.062-.671-.113-1.321-.153-1.932-.042-.661-.073-1.307-.093-1.922a1.08,1.08,0,0,0-2.16.068c.02.638.052,1.308.1,1.992.017.263.036.532.057.807-.155,0-.309.006-.461.006H30.949a20.487,20.487,0,0,1-2.229-.125,1.08,1.08,0,0,0-1.194.977c-.12,1.342-.282,2.741-.479,4.159a3.678,3.678,0,0,1-7.286,0c0-.03-.008-.06-.012-.089,0-.011,0-.022,0-.033s0-.02,0-.03c-.214-1.558-.46-3.656-.6-5.876a34.849,34.849,0,0,1,.3-8.563,1.08,1.08,0,1,0-2.121-.411,27.258,27.258,0,0,0-.434,4.274,20.026,20.026,0,0,1-6.106-14.4c0-.089,0-.177,0-.266v-.032a19.593,19.593,0,0,1,1.865-8.13,1.08,1.08,0,1,0-1.956-.917,21.728,21.728,0,0,0-2.031,7.963c-3.115.05-5.3.711-6.845,2.054A4.78,4.78,0,0,0,.2,247.024a3.409,3.409,0,0,0,5.709,1.612,2.932,2.932,0,0,0,.865-2.418,1.08,1.08,0,1,0-2.143.274.826.826,0,0,1-.264.632,1.13,1.13,0,0,1-.875.357,1.479,1.479,0,0,1-1.229-1.106,2.625,2.625,0,0,1,.971-2.756c1.114-.971,2.885-1.471,5.4-1.52a22.186,22.186,0,0,0,8.256,16.51,77.688,77.688,0,0,0,.733,8.137,5.839,5.839,0,0,0,11.566,0c.15-1.079.28-2.149.388-3.192.465.029.924.044,1.375.044H44.988c.217,0,.436,0,.656-.01.1,1,.227,2.023.37,3.055,0,.034.01.068.015.1h0l.005.032a5.924,5.924,0,0,0,5.746,5h.032a5.858,5.858,0,0,0,5.783-5.033c.377-2.708.616-5.247.711-7.558a22.517,22.517,0,0,0,3.165-2.861A1.08,1.08,0,0,0,61.4,254.8Zm0,0" transform="translate(0.001 -198.025)" fill="#f0a0aa"/>
  <path id="Path_44" data-name="Path 44" d="M33.385,19.818A9.909,9.909,0,1,0,27.844,1.693a1.08,1.08,0,0,0,1.21,1.79A7.736,7.736,0,1,1,26.48,6.391a1.08,1.08,0,0,0-1.924-.982,9.912,9.912,0,0,0,8.83,14.409Zm0,0" transform="translate(-20.095)" fill="#f0a0aa"/>
  <path id="Path_45" data-name="Path 45" d="M165.192,160.151h-3.127v-3.121a1.042,1.042,0,0,0-2.085,0v3.121h-3.127a1.04,1.04,0,1,0,0,2.081h3.127v3.121a1.042,1.042,0,0,0,2.085,0v-3.121h3.127a1.04,1.04,0,1,0,0-2.081Z" transform="translate(-128.123 -141.121)" fill="#f0a0aa"/>
  <line id="Line_3" data-name="Line 3" x2="8.714" transform="translate(8.637 9.701)" fill="none" stroke="#f0a0aa" stroke-linecap="round" stroke-width="2"/>
</svg>
